<svg width="338" height="116" viewBox="0 0 338 116" fill="none" xmlns="http://www.w3.org/2000/svg">
<path d="M154.023 56.728C141.89 56.728 132.486 48.2348 132.486 35.7984C132.486 23.362 141.89 14.8689 154.023 14.8689C162.94 14.8689 168.097 19.7221 170.948 24.7574L163.547 28.3973C161.848 25.1213 158.209 22.5127 154.023 22.5127C146.682 22.5127 141.344 28.1546 141.344 35.7984C141.344 43.4423 146.682 49.0842 154.023 49.0842C158.209 49.0842 161.848 46.5362 163.547 43.1996L170.948 46.7789C168.036 51.8141 162.94 56.728 154.023 56.728ZM201.798 56H176.076V15.5362H184.69V48.4168H201.798V56ZM225.342 56.728C213.148 56.728 204.23 47.9922 204.23 35.7984C204.23 23.6047 213.148 14.8689 225.342 14.8689C237.596 14.8689 246.514 23.6047 246.514 35.7984C246.514 47.9922 237.596 56.728 225.342 56.728ZM225.342 49.0842C232.804 49.0842 237.657 43.3209 237.657 35.7984C237.657 28.2153 232.804 22.5127 225.342 22.5127C217.88 22.5127 213.087 28.2153 213.087 35.7984C213.087 43.3209 217.88 49.0842 225.342 49.0842ZM270.82 56.728C258.504 56.728 252.559 49.8121 252.559 39.863V15.5362H261.295V39.5597C261.295 45.2016 264.571 49.0842 270.82 49.0842C277.068 49.0842 280.283 45.2016 280.283 39.5597V15.5362H289.08V39.8024C289.08 49.8728 283.135 56.728 270.82 56.728ZM313.006 56H297.051V15.5362H313.006C325.685 15.5362 334.482 23.6047 334.482 35.7984C334.482 47.9922 325.685 56 313.006 56ZM313.006 48.4168C321.014 48.4168 325.685 42.6536 325.685 35.7984C325.685 28.6399 321.317 23.1194 313.006 23.1194H305.666V48.4168H313.006Z" fill="white"/>
<path d="M149.627 100.821L144.814 93.3188H141.049V100.821H138.699V81.938H146.287C147.155 81.938 147.948 82.0701 148.665 82.3343C149.382 82.5985 150.005 82.9854 150.533 83.495C151.062 83.9857 151.467 84.5803 151.751 85.2786C152.053 85.9769 152.204 86.7602 152.204 87.6284C152.204 88.4777 152.071 89.2326 151.807 89.8932C151.543 90.5538 151.184 91.1105 150.731 91.5635C150.278 92.0165 149.75 92.3751 149.146 92.6393C148.561 92.9035 147.948 93.064 147.306 93.1206L152.402 100.821H149.627ZM146.004 91.2521C147.136 91.2521 148.042 90.9218 148.721 90.2612C149.42 89.5818 149.769 88.7042 149.769 87.6284C149.769 86.5526 149.42 85.6844 148.721 85.0238C148.042 84.3632 147.136 84.0329 146.004 84.0329H141.049V91.2521H146.004ZM173.872 101.161C172.476 101.161 171.202 100.915 170.05 100.425C168.899 99.934 167.908 99.2545 167.078 98.3863C166.266 97.4993 165.634 96.4612 165.181 95.2722C164.728 94.0831 164.502 92.7903 164.502 91.3937C164.502 89.997 164.728 88.7042 165.181 87.5151C165.634 86.3261 166.266 85.2975 167.078 84.4293C167.908 83.5422 168.899 82.8533 170.05 82.3626C171.202 81.8719 172.476 81.6265 173.872 81.6265C175.269 81.6265 176.543 81.8719 177.694 82.3626C178.846 82.8533 179.827 83.5422 180.639 84.4293C181.469 85.2975 182.111 86.3261 182.564 87.5151C183.017 88.7042 183.243 89.997 183.243 91.3937C183.243 92.7903 183.017 94.0831 182.564 95.2722C182.111 96.4612 181.469 97.4993 180.639 98.3863C179.827 99.2545 178.846 99.934 177.694 100.425C176.543 100.915 175.269 101.161 173.872 101.161ZM173.872 99.0658C174.929 99.0658 175.882 98.8771 176.732 98.4996C177.581 98.1032 178.308 97.5653 178.912 96.8859C179.516 96.1876 179.978 95.376 180.299 94.4512C180.639 93.5075 180.808 92.4883 180.808 91.3937C180.808 90.299 180.639 89.2798 180.299 88.3361C179.978 87.3924 179.516 86.5809 178.912 85.9014C178.308 85.222 177.581 84.6935 176.732 84.316C175.882 83.9197 174.929 83.7215 173.872 83.7215C172.815 83.7215 171.853 83.9197 170.985 84.316C170.135 84.6935 169.409 85.222 168.805 85.9014C168.201 86.5809 167.738 87.3924 167.418 88.3361C167.097 89.2798 166.936 90.299 166.936 91.3937C166.936 92.4883 167.097 93.5075 167.418 94.4512C167.738 95.376 168.201 96.1876 168.805 96.8859C169.409 97.5653 170.135 98.1032 170.985 98.4996C171.853 98.8771 172.815 99.0658 173.872 99.0658ZM196.256 100.821V81.938H198.606V98.7261H207.382V100.821H196.256ZM220.03 100.821V81.938H232.402V84.0329H222.38V90.1197H232.204V92.2147H222.38V98.7261H232.402V100.821H220.03ZM245.491 100.821V81.938H253.078C254.022 81.938 254.862 82.0889 255.598 82.3909C256.334 82.6929 256.947 83.1081 257.438 83.6366C257.947 84.1462 258.334 84.7501 258.599 85.4485C258.863 86.1279 258.995 86.8545 258.995 87.6284C258.995 88.4022 258.863 89.1383 258.599 89.8366C258.334 90.516 257.947 91.12 257.438 91.6484C256.928 92.158 256.305 92.5638 255.569 92.8658C254.833 93.1678 254.003 93.3188 253.078 93.3188H247.841V100.821H245.491ZM252.795 91.2238C253.927 91.2238 254.833 90.8935 255.513 90.2329C256.211 89.5723 256.56 88.7042 256.56 87.6284C256.56 86.5526 256.211 85.6844 255.513 85.0238C254.833 84.3632 253.927 84.0329 252.795 84.0329H247.841V91.2238H252.795ZM271.449 100.821V81.938H273.799V98.7261H282.575V100.821H271.449ZM308.699 100.821L307.029 96.6311H297.63L295.959 100.821H293.27L300.857 81.938H303.773L311.389 100.821H308.699ZM302.329 84.3727L298.309 94.5361H306.321L302.329 84.3727ZM326.895 100.821V92.8375L319.449 81.938H322.195L328.056 90.7142L333.916 81.938H336.662L329.245 92.8375V100.821H326.895Z" fill="white"/>
<g filter="url(#filter0_d_225_2)">
<path d="M86.6903 5.20839C87.8634 4.96786 89.0676 5.09666 90.2548 5.11528L90.2268 5.23632C91.1222 5.19597 92.0036 5.3527 92.8912 5.43339L92.8664 5.53116C93.4452 5.54667 94.0132 5.66771 94.5858 5.75461L94.5718 5.83841C95.0529 5.871 95.5231 5.97962 95.9979 6.06032L95.9731 6.13946C96.7133 6.20308 97.4054 6.49016 98.1192 6.67637C98.5196 6.79896 98.923 6.9169 99.3156 7.06587C99.3994 7.08604 99.5701 7.12639 99.6555 7.14656C100.102 7.33588 100.559 7.50347 101.01 7.68348C101.336 7.81694 101.66 7.95194 101.992 8.07298C102.492 8.30575 102.995 8.53076 103.488 8.77439C104.247 9.15457 105.003 9.54562 105.718 10.0065C107.663 11.1284 109.425 12.539 111.08 14.0505C111.475 14.3934 111.851 14.7658 112.178 15.177L112.216 15.1802C113.144 16.195 114.045 17.2332 114.852 18.3489C115.003 18.5739 115.152 18.7989 115.296 19.027C115.335 19.0503 115.411 19.0938 115.45 19.1155C115.594 19.3839 115.752 19.6477 115.909 19.9115C116.188 20.3026 116.444 20.7123 116.677 21.1343C116.781 21.3004 116.886 21.4649 116.992 21.6309C117.104 21.8544 117.209 22.0794 117.31 22.3075L117.361 22.2966C117.51 22.593 117.661 22.8879 117.825 23.1765C117.9 23.3581 117.976 23.5412 118.05 23.7243L118.126 23.7367C118.198 23.9198 118.274 24.1014 118.35 24.2845C118.485 24.5514 118.606 24.826 118.71 25.1085L118.809 25.1317C118.812 25.1783 118.817 25.2699 118.82 25.3149C118.888 25.5088 118.952 25.7059 119.011 25.903L119.147 25.8921C119.126 25.9682 119.082 26.1202 119.061 26.1963L119.272 26.1901C119.27 26.3142 119.264 26.5609 119.261 26.6851L119.416 26.6587C119.413 26.772 119.407 27.0001 119.403 27.1149C115.271 27.1351 111.139 27.1211 107.008 27.1087L107.011 27.0249C106.949 26.9861 106.823 26.9101 106.761 26.8728C106.656 26.6804 106.55 26.488 106.446 26.2956C106.333 26.142 106.224 25.9868 106.117 25.8316C105.877 25.5088 105.634 25.1876 105.399 24.8617C105.076 24.4567 104.727 24.0734 104.421 23.6544C104.177 23.431 103.931 23.2137 103.687 22.9934C103.585 22.8894 103.484 22.7854 103.384 22.6815C102.736 22.0747 102.095 21.4587 101.364 20.9497C101.091 20.7573 100.821 20.5617 100.554 20.3631C100.407 20.2716 100.259 20.18 100.113 20.09L100.146 20.0822C99.3544 19.5919 98.5521 19.117 97.708 18.7213C97.4255 18.5817 97.1431 18.4513 96.8622 18.3117C96.3284 18.1301 95.8008 17.9299 95.2841 17.7065C94.9986 17.632 94.7161 17.5497 94.4322 17.4737L94.4415 17.3977C94.0271 17.3604 93.6283 17.2518 93.245 17.1013C92.6802 17.0656 92.1371 16.9119 91.5877 16.7925C89.8715 16.6512 88.135 16.4107 86.4172 16.6683C85.0501 16.735 83.7155 17.0532 82.3965 17.4023C82.0784 17.5311 81.751 17.632 81.422 17.722C80.9146 17.9206 80.4056 18.1161 79.895 18.3085C78.7312 18.8284 77.5798 19.3824 76.5013 20.0683C76.194 20.2747 75.879 20.4717 75.5609 20.6626C74.4048 21.4835 73.3713 22.4534 72.3332 23.4124C72.3037 23.4698 72.2447 23.5862 72.2153 23.6436C72.0337 23.8422 71.8521 24.0408 71.6737 24.2426C71.4425 24.525 71.2113 24.8059 70.98 25.0883C70.8559 25.2745 70.7333 25.4607 70.6076 25.6469C70.3857 25.9511 70.1793 26.2661 69.9729 26.5811C69.7246 27.0094 69.4795 27.4408 69.2296 27.8691C69.0031 28.3176 68.7967 28.7769 68.5593 29.2191C68.4786 29.4302 68.3994 29.6412 68.3187 29.8523C68.1775 30.1549 68.058 30.4668 67.923 30.7725C67.7942 31.1604 67.6747 31.553 67.5552 31.9441L67.473 31.9317C67.4202 32.2994 67.3364 32.6626 67.2542 33.0241L67.1456 33.0055C67.1114 33.5548 66.9966 34.0933 66.8616 34.6256C66.753 35.1873 66.7095 35.7677 66.5016 36.3061L66.4302 36.303C66.348 36.5482 66.2673 36.7934 66.1555 37.0277C65.9445 37.3831 65.7179 37.726 65.4619 38.0503C64.9514 38.64 64.3012 39.073 63.6401 39.4749C63.1684 39.6409 62.6889 39.7868 62.2233 39.9699C61.3528 39.9668 60.4248 40.1484 59.6086 39.7604C59.2811 39.703 58.9615 39.613 58.6573 39.4795C57.7759 39.0528 57.0854 38.3467 56.3374 37.7338C56.1962 37.6252 56.055 37.5165 55.9169 37.4064C55.7477 37.3179 55.5832 37.2326 55.4156 37.1457C55.2372 37.0262 55.0618 36.9051 54.888 36.7825C54.722 36.7484 54.5575 36.7143 54.393 36.6817C54.3961 36.6398 54.4023 36.556 54.4054 36.5125C54.1603 36.4442 53.9166 36.3667 53.6761 36.2844C52.25 35.7506 50.7044 35.5644 49.1899 35.6885C48.1595 35.8639 47.14 36.0889 46.1748 36.5001C45.1133 37.0184 44.1171 37.6826 43.2838 38.5221C43.0759 38.7362 42.8664 38.9473 42.6538 39.1552C42.4163 39.4966 42.165 39.8287 41.8732 40.1266C41.8546 40.1996 41.8174 40.3485 41.7987 40.4215C41.732 40.482 41.6001 40.6015 41.5334 40.662C41.5148 40.7365 41.476 40.887 41.4558 40.9615C41.282 41.2331 41.1392 41.5201 41.0182 41.8181C40.9484 41.9608 40.8785 42.1052 40.8087 42.2495C40.7513 42.5924 40.638 42.9229 40.4766 43.2318C40.4239 44.4173 40.0949 45.6137 40.3695 46.7962C40.4145 47.2602 40.4378 47.7273 40.4518 48.1959C40.5402 48.4333 40.6256 48.6723 40.7187 48.9097C40.7684 49.5879 40.7823 50.2706 40.7109 50.9488C40.5154 51.4159 40.4239 51.9186 40.2051 52.3749C39.6774 53.3959 38.8814 54.2774 37.8603 54.8174C36.816 55.3341 35.6568 55.6072 34.4914 55.5808C33.9405 55.7965 33.3446 55.826 32.7736 55.9657C32.4617 56.0588 32.1466 56.141 31.8301 56.214C31.529 56.3257 31.2218 56.4204 30.913 56.5104C30.4366 56.7168 29.9602 56.92 29.4822 57.1233C29.2867 57.2335 29.0896 57.3375 28.8894 57.4414C27.094 58.3942 25.55 59.7443 24.2186 61.2681C24.1906 61.324 24.1348 61.4373 24.1068 61.4931C23.9377 61.7057 23.7655 61.9168 23.5917 62.1263C23.0827 62.9115 22.5814 63.7029 22.1594 64.5409C21.9483 65.0173 21.7528 65.4999 21.5324 65.9716C21.3385 66.5908 21.1228 67.2022 20.994 67.8399C20.5548 69.2303 20.6402 70.7107 20.4183 72.1384L20.5331 72.1198C20.6262 73.1843 20.6402 74.2814 20.9862 75.3009C21.056 75.6237 21.1352 75.9434 21.2205 76.2646C21.3555 76.592 21.4579 76.9319 21.5495 77.2763L21.6302 77.25C21.7062 77.5107 21.7854 77.7714 21.8599 78.0367L21.9499 78.0103C22.0228 78.2012 22.0957 78.3936 22.1671 78.586C22.3766 78.9492 22.5737 79.3185 22.7739 79.6863C22.822 79.7576 22.9197 79.902 22.9678 79.9733C23.0656 80.1301 23.1618 80.2868 23.2565 80.4466C24.1239 81.7781 25.235 82.9186 26.4019 83.9878C27.257 84.5728 28.0732 85.2199 29.0089 85.6793C29.2867 85.8313 29.566 85.9788 29.8391 86.1401C29.9772 86.1836 30.1154 86.227 30.255 86.2705C30.57 86.3993 30.8944 86.511 31.2078 86.646C32.7705 87.214 34.4216 87.4793 36.0789 87.5321L36.0882 87.6283C50.2311 87.6314 64.3741 87.6283 78.5171 87.633C82.4213 87.6547 86.3272 87.5864 90.2315 87.6655C90.1725 87.7074 90.0561 87.7912 89.9987 87.8331C89.8932 88.0581 89.7815 88.2785 89.6651 88.4989C89.3097 89.1258 88.9761 89.7651 88.6037 90.3827C88.4966 90.5798 88.3895 90.7784 88.2762 90.9739C88.0186 91.4441 87.7595 91.9143 87.5003 92.3845C87.3002 92.7523 87.0969 93.1201 86.8874 93.4832C86.7803 93.6803 86.6748 93.8804 86.5646 94.0775C86.3225 94.5074 86.0913 94.9434 85.8399 95.3701C85.7266 95.5688 85.6149 95.769 85.5016 95.9691C85.3915 96.1662 85.2813 96.3648 85.168 96.5604C84.8126 97.1997 84.4883 97.8577 84.0709 98.4598C84.0336 98.6273 83.9995 98.7949 83.9654 98.9641C83.7078 99.0231 83.4502 99.0929 83.1864 99.096C69.481 99.096 55.7741 99.096 42.0687 99.096C39.693 99.082 37.3141 99.1581 34.9445 98.9796L35.033 98.843C33.9529 98.8167 32.8294 98.9253 31.7944 98.5529C31.2109 98.5218 30.6228 98.4629 30.0781 98.2394C29.9291 98.2177 29.7802 98.1975 29.6327 98.1804C29.4295 98.1028 29.2277 98.0268 29.0244 97.9523C28.7529 97.8933 28.4829 97.8251 28.2175 97.7444C27.8187 97.6063 27.4184 97.4713 27.0195 97.3316C26.3895 97.0911 25.7642 96.8366 25.1574 96.5402C24.9929 96.4704 24.8284 96.399 24.6639 96.3291C24.4405 96.2143 24.2108 96.1103 23.9812 96.0079C23.7856 95.876 23.5901 95.7488 23.4008 95.6122C23.2534 95.575 23.1044 95.5393 22.957 95.5052C22.9166 95.457 22.8344 95.3608 22.794 95.3112C22.6295 95.2134 22.4666 95.1126 22.3037 95.0132C22.2369 94.9884 22.1019 94.9419 22.0352 94.917C21.5805 94.588 21.1336 94.2513 20.6541 93.958C20.1188 93.6197 19.616 93.2333 19.1318 92.8252C18.2085 92.04 17.2526 91.2796 16.4705 90.3455C16.3697 90.2446 16.2688 90.1453 16.1664 90.046C15.946 89.7992 15.7319 89.5447 15.5239 89.2872C15.2539 88.983 14.9979 88.668 14.7511 88.3468C14.5261 88.0504 14.312 87.7478 14.1118 87.4359C13.7487 86.9207 13.3871 86.4039 13.069 85.8577C12.6407 85.1563 12.2652 84.4223 11.8834 83.6945C11.8229 83.5269 11.7609 83.3624 11.7003 83.1964C11.6072 83.0567 11.5141 82.9186 11.421 82.7821C11.4101 82.7029 11.3884 82.5478 11.3776 82.4686C11.1945 82.2079 11.0889 81.9053 11.0393 81.5934L10.9601 81.6074C10.8779 81.3699 10.7956 81.1325 10.7227 80.892C10.5411 80.4358 10.3953 79.9671 10.2727 79.4923C10.1191 79.1571 10.0337 78.7955 9.98561 78.4324C9.74664 77.8924 9.68146 77.3012 9.67525 76.7162C9.60387 76.547 9.53559 76.3763 9.46576 76.2087C9.29817 74.8975 9.39748 73.5396 9.00488 72.2625V70.748C9.29972 69.9519 9.25938 69.1062 9.27334 68.2744L9.38352 68.2775C9.37886 67.7639 9.33541 67.2316 9.52473 66.7413C9.53714 66.6156 9.56353 66.3642 9.57594 66.2385L9.70474 66.2773C9.71094 65.8397 9.62404 65.3881 9.73732 64.9614C9.79629 65.0312 9.91578 65.1693 9.97475 65.2392C9.9794 64.6541 9.99027 64.0443 10.2991 63.5275C10.3317 63.3258 10.3627 63.1272 10.3984 62.927C10.597 62.5499 10.7537 62.1496 10.8298 61.729L10.9648 61.7275C10.957 61.6561 10.9415 61.5164 10.9322 61.445L11.0346 61.428C11.1153 61.1424 11.2239 60.8678 11.3558 60.6055C11.4257 60.4007 11.4955 60.1959 11.5653 59.9926L11.6522 60.0267C11.8384 59.4805 12.1209 58.9762 12.3754 58.4594L12.4142 58.4532C12.6081 58.0606 12.8378 57.6866 13.0628 57.3111C13.294 56.9356 13.5361 56.5662 13.7859 56.2031C13.8883 56.0479 13.9923 55.8928 14.0978 55.7391C14.3058 55.4303 14.5277 55.1308 14.7511 54.8329C15.1158 54.3674 15.4836 53.9065 15.8529 53.4456C15.9553 53.3447 16.0577 53.2454 16.1617 53.1461C17.0912 52.0583 18.1604 51.0993 19.2544 50.1822C19.5493 49.9525 19.8441 49.726 20.1405 49.4979C20.4896 49.2294 20.845 48.9687 21.2174 48.7328C21.8552 48.3402 22.4759 47.9212 23.1354 47.5659C23.3372 47.4542 23.542 47.3486 23.7484 47.2462C23.9951 47.1143 24.245 46.9886 24.4932 46.8567C25.0271 46.6271 25.5547 46.3834 26.09 46.1569C26.3926 46.0296 26.6952 45.9055 26.9963 45.7782C27.2818 45.6913 27.5689 45.6091 27.8606 45.5424V45.4694C28.1104 45.381 28.3603 45.291 28.6117 45.2072C28.8165 44.6703 28.7855 44.0914 28.8305 43.5281C28.9019 43.2923 28.95 43.0502 28.9965 42.8097L29.0788 42.8143C29.0772 42.296 29.0508 41.7591 29.2479 41.2687C29.4155 40.7567 29.4512 40.2166 29.5769 39.6952L29.6917 39.7201C29.7321 38.9131 30.1712 38.2055 30.4055 37.4467C30.5049 37.1876 30.6119 36.9315 30.7283 36.6801C30.8307 36.4691 30.9347 36.258 31.0418 36.0485C31.1473 35.8406 31.2528 35.6342 31.363 35.4294C31.6873 34.8257 32.0349 34.2314 32.4539 33.6883C32.4818 33.6262 32.5377 33.5021 32.5656 33.44C33.1894 32.6486 33.7714 31.8199 34.4759 31.0968C34.8793 30.6623 35.2937 30.2387 35.7219 29.829C35.8523 29.725 35.9842 29.6226 36.113 29.5171C37.0689 28.631 38.1676 27.9172 39.2709 27.2329C39.5316 27.0839 39.7923 26.9349 40.0545 26.7875C40.2066 26.7068 40.3602 26.6261 40.5123 26.5439C41.0182 26.2801 41.5411 26.052 42.0672 25.8285C42.3232 25.7168 42.5839 25.6159 42.8446 25.5135C43.4964 25.2807 44.1559 25.0681 44.8294 24.9052C45.8458 24.5948 46.8995 24.4629 47.9516 24.3372C49.6989 24.0486 51.4896 24.1619 53.2354 24.4148C53.5954 24.4676 53.9585 24.5079 54.3092 24.6119C55.0789 24.7221 55.8284 24.9347 56.5671 25.1752C56.9038 25.3009 57.27 25.3319 57.6254 25.2714C57.9559 24.885 58.1313 24.3977 58.378 23.957C58.454 23.7693 58.5332 23.5831 58.6139 23.3953L58.6868 23.4015C58.8389 22.9934 59.0453 22.6085 59.2703 22.2377C59.5449 21.7737 59.7917 21.2942 60.0756 20.8364C60.2169 20.6238 60.3565 20.4112 60.5024 20.2017C60.7041 19.8898 60.9105 19.5795 61.1216 19.2753C61.331 18.9712 61.5545 18.6779 61.7686 18.3784C62.2357 17.8011 62.6749 17.2006 63.1792 16.6528C63.5361 16.2416 63.9024 15.8366 64.2779 15.4424C64.8303 14.7984 65.4634 14.2351 66.0888 13.6656C66.1354 13.6377 66.2285 13.5818 66.275 13.5539C66.5062 13.318 66.7576 13.1039 67.0183 12.8975C68.3405 11.7119 69.8333 10.7436 71.3261 9.7908C71.6225 9.6139 71.9328 9.45717 72.2665 9.35786C72.2572 9.32372 72.237 9.25389 72.2277 9.21975C72.4015 9.15302 72.5753 9.08319 72.7475 9.01026C73.4536 8.61921 74.1814 8.27316 74.9138 7.93332C74.9712 7.9147 75.0845 7.87901 75.1419 7.86038C75.8092 7.52985 76.5106 7.27226 77.2089 7.00846C77.2725 6.98828 77.4029 6.94638 77.468 6.92621C78.4177 6.57085 79.4 6.31481 80.3761 6.04325C81.498 5.77479 82.6277 5.50012 83.79 5.51874C83.5666 5.4846 83.3462 5.45357 83.1243 5.42098C83.6348 5.41322 84.1454 5.38994 84.6559 5.38063L84.6528 5.27201C85.3309 5.25184 86.0137 5.28132 86.6903 5.20839Z" fill="white"/>
<path d="M106.692 39.4126C110.527 39.4219 114.363 39.4141 118.199 39.4173C118.191 39.5259 118.176 39.7431 118.169 39.8518H118.053C117.935 40.1652 117.772 40.4601 117.544 40.7068C117.552 40.7611 117.569 40.8697 117.578 40.924L117.397 40.9365L117.431 41.1211L117.302 41.1056C117.224 41.3415 117.116 41.568 116.96 41.7635C116.886 41.9094 116.815 42.0584 116.746 42.2074L116.683 42.1996C116.573 42.4231 116.458 42.645 116.335 42.8607L116.303 42.9181C116.068 43.2905 115.835 43.6629 115.64 44.0555L115.516 44.054C115.52 44.1083 115.53 44.2185 115.534 44.2743C115.387 44.4714 115.249 44.6747 115.122 44.8857C114.943 45.2194 114.772 45.5639 114.515 45.8447C114.443 46.0573 114.398 46.2932 114.217 46.4453C114.071 46.6687 113.93 46.8969 113.793 47.1265C113.756 47.2088 113.682 47.3748 113.644 47.4586L113.574 47.4726C113.464 47.6991 113.348 47.9226 113.216 48.1383V48.2485L113.034 48.2407C113.045 48.3167 113.065 48.4688 113.076 48.5448L112.889 48.5386L112.904 48.6566C112.752 48.894 112.622 49.1438 112.479 49.3859C112.353 49.6094 112.212 49.822 112.071 50.0346C111.976 50.2084 111.885 50.3837 111.737 50.5172C111.663 50.7313 111.604 50.961 111.425 51.1146C111.351 51.262 111.276 51.4079 111.2 51.5538L111.202 51.6655L111.098 51.6593C110.989 51.8796 110.874 52.0953 110.755 52.3095C110.656 52.4709 110.553 52.6322 110.449 52.7905C110.32 53.0342 110.187 53.2747 110.057 53.5168L109.917 53.5199C109.932 53.5881 109.963 53.7231 109.979 53.7914L109.791 53.8147L109.828 54.004L109.698 53.9761C109.628 54.1918 109.596 54.4494 109.349 54.5332C109.349 54.5689 109.347 54.6403 109.347 54.6775C109.299 54.7722 109.203 54.9646 109.155 55.0608L109.057 55.0732C108.981 55.2687 108.899 55.4627 108.826 55.6598L108.734 55.6629C108.705 55.7249 108.649 55.8475 108.621 55.9081C108.537 56.0819 108.437 56.2464 108.317 56.3984C108.225 56.58 108.135 56.7615 108.052 56.9462L107.9 56.9229C107.914 56.9928 107.942 57.134 107.954 57.2038L107.777 57.2395L107.807 57.4211L107.687 57.4071C107.599 57.6414 107.478 57.8618 107.349 58.0759C107.209 58.3366 107.057 58.5895 106.906 58.844C106.818 59.0054 106.733 59.1699 106.619 59.3158C106.492 59.5175 106.373 59.7208 106.245 59.9225C106.159 60.0979 106.073 60.2763 105.994 60.4563C105.934 60.475 105.876 60.4951 105.819 60.5169C105.771 60.7605 105.653 60.9762 105.515 61.1779C105.435 61.3548 105.331 61.5178 105.223 61.676C105.105 61.8669 105.001 62.0671 104.888 62.2611C104.794 62.4318 104.712 62.6164 104.557 62.7421C104.531 62.8368 104.478 63.023 104.452 63.1176L104.346 63.1021L104.344 63.293L104.237 63.2713C104.213 63.3334 104.163 63.4575 104.138 63.5196C104.05 63.6965 103.972 63.8889 103.784 63.982C103.742 64.1558 103.704 64.3296 103.668 64.5065C103.626 64.5065 103.541 64.5065 103.499 64.5065C103.333 64.8929 103.108 65.2482 102.918 65.6238L102.855 65.6269C102.732 65.8674 102.603 66.1048 102.47 66.3392C102.358 66.5424 102.265 66.7597 102.107 66.9335C102.011 67.1088 101.921 67.2904 101.834 67.472L101.685 67.4735C101.696 67.5449 101.717 67.6846 101.728 67.7559L101.557 67.787L101.587 67.9623L101.454 67.9515C101.379 68.1501 101.298 68.3487 101.225 68.5489L101.067 68.5411L101.128 68.7305L100.932 68.7196C100.946 68.7956 100.972 68.9462 100.986 69.0222L100.8 69.0346L100.813 69.227L100.687 69.1727C100.645 69.4443 100.527 69.6879 100.321 69.8757C100.325 69.9191 100.335 70.006 100.341 70.0495C100.276 70.1224 100.145 70.2683 100.08 70.3412C99.9715 70.546 99.8691 70.7555 99.7388 70.9479C99.6969 71.0224 99.6162 71.1714 99.5743 71.2459C99.4781 71.398 99.3834 71.5516 99.2903 71.7052C99.2112 71.8759 99.1336 72.0497 99.0141 72.1987C98.8062 72.5339 98.6029 72.8737 98.4244 73.226L98.3546 73.2353C98.2382 73.5224 98.0954 73.8001 97.931 74.0624C97.8177 74.2207 97.7184 74.3867 97.619 74.5543C97.5042 74.7514 97.3816 74.9453 97.2544 75.1347C97.1908 75.2805 97.1287 75.428 97.0682 75.5754H96.9456C96.9238 75.6669 96.8804 75.85 96.8571 75.9416C96.7454 76.0518 96.6337 76.1619 96.5235 76.2721C96.449 76.4847 96.4335 76.7501 96.2054 76.8618C96.1293 77.0465 96.0673 77.2435 95.9028 77.3723C95.8159 77.6563 95.6529 77.903 95.4636 78.1281C95.3767 78.2693 95.3007 78.4151 95.2324 78.5672L95.2479 78.6898L95.1129 78.6308C95.0493 78.8372 95.0726 79.1212 94.8026 79.174C94.7312 79.3741 94.6598 79.5728 94.5884 79.773L94.4844 79.7295C94.4208 79.9778 94.3168 80.2137 94.1555 80.4154C94.0655 80.5799 93.977 80.7459 93.8917 80.912C93.6434 80.6513 93.3268 80.4185 93.3051 80.0243L93.2042 80.0631C93.1297 79.9033 93.0599 79.7419 92.9916 79.5821L92.8737 79.5836L92.8939 79.4114L92.793 79.3819C92.5401 78.9381 92.2545 78.5113 92.028 78.052L91.9333 78.0396L91.9612 77.8658L91.8262 77.8503C91.7812 77.7618 91.6881 77.5834 91.6431 77.4949C91.6323 77.4577 91.6121 77.3847 91.6028 77.3491C91.294 77.0387 91.1512 76.6151 90.9246 76.252C90.8269 76.1278 90.7291 76.0068 90.6314 75.8873L90.5491 75.833C90.5569 75.7647 90.5724 75.6266 90.5802 75.5567L90.4265 75.5738C90.3039 75.31 90.1891 75.0369 89.9719 74.8367C89.9517 74.7405 89.9129 74.5496 89.8927 74.455C89.8462 74.4534 89.753 74.4488 89.7049 74.4472C89.618 74.2626 89.5296 74.081 89.4318 73.9041C89.2984 73.7117 89.1882 73.5068 89.0796 73.3036C88.9089 73.167 88.8375 72.9591 88.7878 72.7558L88.6358 72.7837L88.7025 72.5897L88.5116 72.582C88.5225 72.509 88.5427 72.3663 88.5535 72.2949L88.358 72.3135L88.3844 72.1366L88.209 72.1056C88.2214 72.0358 88.2478 71.8976 88.2618 71.8278H88.0725L88.0787 71.654L87.9763 71.6385C87.804 71.2738 87.5728 70.9433 87.3943 70.5833L87.3183 70.6019C87.2361 70.4188 87.1554 70.2357 87.0731 70.0557C86.8062 69.7748 86.6309 69.4288 86.4446 69.0951C86.4105 69.0486 86.3407 68.9586 86.3065 68.912C86.2367 68.777 86.1715 68.6404 86.111 68.5023C85.9264 68.2944 85.7789 68.057 85.6765 67.7978L85.5958 67.8211C85.5136 67.6395 85.4344 67.4595 85.3522 67.2826C85.1955 67.1538 85.1256 66.9645 85.0434 66.7892C84.8836 66.6666 84.806 66.4835 84.7299 66.3066C84.7004 66.2507 84.6399 66.1374 84.6104 66.0816L84.4941 66.0893C84.4801 65.9978 84.4506 65.8147 84.4366 65.7231C84.2877 65.5741 84.1418 65.4236 84.0021 65.2684C84.0083 65.2203 84.0177 65.121 84.0223 65.0729C83.7616 64.9891 83.7213 64.7346 83.667 64.5034L83.5351 64.5639L83.5801 64.3606H83.3752C83.3876 64.2892 83.4125 64.1449 83.4264 64.0735L83.248 64.072L83.2464 63.9556C83.1269 63.7554 83.009 63.5537 82.8864 63.3566C82.739 63.2294 82.6567 63.0509 82.5621 62.8895C82.1834 62.2859 81.8234 61.6698 81.4401 61.0693C81.2291 60.731 80.9886 60.4036 80.8675 60.0187L80.7558 60.0606L80.7418 59.9443C80.6705 59.8015 80.6022 59.6572 80.5355 59.5144C80.3089 59.3344 80.2049 59.0613 80.1025 58.8006L80.0032 58.8254C79.9318 58.6563 79.8651 58.4871 79.8015 58.3164L79.6665 58.3506L79.6758 58.2264C79.5997 58.0821 79.5252 57.9409 79.4523 57.7981C79.2987 57.674 79.2273 57.4893 79.1466 57.3186C78.9433 57.1821 78.9061 56.9353 78.8347 56.7227C78.664 56.6079 78.5833 56.4233 78.4995 56.2463C78.3676 56.1036 78.2683 55.9391 78.1829 55.7684C78.0076 55.5543 77.8214 55.3386 77.7966 55.0515L77.6864 55.0794C77.6057 54.8901 77.5219 54.7008 77.4396 54.5146C77.2426 54.3796 77.1526 54.1623 77.0626 53.9528C77.0207 53.9094 76.9369 53.824 76.895 53.7806C76.8205 53.6192 76.746 53.4593 76.6715 53.3011C76.5055 53.18 76.4325 52.9907 76.3503 52.8123C76.2122 52.6819 76.1206 52.5143 76.0368 52.3483C76.0073 52.2862 75.9453 52.1621 75.9142 52.1015L75.773 52.1139C75.7839 52.0395 75.8072 51.892 75.8196 51.8191L75.6365 51.8176L75.6582 51.6391L75.4704 51.6267C75.4797 51.5615 75.4984 51.4296 75.5092 51.3629L75.3913 51.3412C75.2268 51.0991 75.084 50.8415 74.9878 50.5653L74.8714 50.5885C74.7985 50.4008 74.7287 50.213 74.6619 50.0268C74.454 49.9415 74.4075 49.7335 74.3423 49.5442C74.0924 49.4387 74.0831 49.1578 74.0257 48.9328C73.7324 48.8924 73.765 48.61 73.7169 48.3943C73.6704 48.4005 73.5773 48.4129 73.5307 48.4192C73.4407 48.2267 73.3507 48.039 73.2576 47.8512C72.9891 47.5253 72.8045 47.142 72.6012 46.7758C72.4894 46.6237 72.3762 46.4732 72.266 46.3242C72.0891 46.0449 71.9246 45.7547 71.8672 45.4258C75.6644 45.4242 79.4647 45.4133 83.2635 45.4304C83.4218 45.6073 83.5769 45.7858 83.7306 45.9689C83.7197 46.0325 83.6949 46.1598 83.684 46.2234L83.8252 46.2187C83.9711 46.5198 84.1371 46.8115 84.3451 47.0753C84.3404 47.1312 84.3311 47.2429 84.3265 47.2972L84.4925 47.3019L84.5018 47.4167C84.6492 47.6541 84.7842 47.8993 84.9332 48.1383C84.972 48.2097 85.0511 48.3509 85.0915 48.4223C85.2327 48.6705 85.3724 48.9235 85.4841 49.1888C85.4981 49.1857 85.5291 49.1795 85.5431 49.1764C85.6501 49.3844 85.7634 49.5907 85.8813 49.7956C86.0567 50.0842 86.2243 50.3806 86.3934 50.6754C86.4571 50.8089 86.5222 50.9439 86.589 51.0774C86.7798 51.217 86.8186 51.4529 86.8885 51.6624L87.0064 51.6236L87.0188 51.7322C87.0871 51.8843 87.1523 52.0379 87.2174 52.1931C87.413 52.311 87.4471 52.5422 87.5169 52.7424L87.6519 52.699L87.6256 52.8185C87.7 52.9721 87.7792 53.1257 87.8583 53.2793C88.0244 53.4749 88.1501 53.6983 88.2711 53.9249C88.4123 54.1344 88.5225 54.3625 88.5892 54.6077L88.7056 54.572L88.7196 54.6822C88.7878 54.8342 88.8546 54.9894 88.9197 55.1461C89.1029 55.2656 89.1696 55.4736 89.2317 55.6737L89.3294 55.6815L89.3201 55.7808C89.4008 55.9282 89.483 56.0726 89.5684 56.2184C89.7593 56.4512 89.9113 56.7134 90.0013 57.0036C90.2186 57.1122 90.2357 57.3621 90.2962 57.5716L90.4188 57.5266L90.3846 57.7174L90.577 57.7252C90.5677 57.7857 90.5507 57.9052 90.5429 57.9642C90.6608 58.1069 90.7803 58.2482 90.9014 58.3909C90.8921 58.4499 90.8719 58.5663 90.861 58.6237L90.9867 58.6206C91.1434 58.8689 91.3002 59.1218 91.3793 59.4104L91.4507 59.3856C91.6229 59.7425 91.8262 60.0839 92.0171 60.4331C92.0481 60.4796 92.1133 60.5712 92.1459 60.6177C92.2576 60.8303 92.3616 61.0476 92.464 61.2679L92.5959 61.2617C92.5913 61.3362 92.5851 61.4836 92.5804 61.5581L92.748 61.5798L92.6983 61.7583L92.8535 61.7536C92.9265 61.9569 93.0056 62.1586 93.0739 62.365L93.198 62.334L93.2197 62.4411C93.3113 62.6319 93.3672 62.8368 93.4184 63.0432C93.5953 63.1114 93.6899 63.2759 93.7861 63.4311C93.8637 63.369 94.0158 63.248 94.0918 63.1859L94.0779 62.9795C94.2362 63.0044 94.3789 62.9501 94.4643 62.8197C94.3727 62.8135 94.188 62.7995 94.0965 62.7933C94.531 62.7002 94.3603 62.1726 94.6831 61.9755C94.7467 61.825 94.8119 61.6776 94.8801 61.5286L94.8972 61.4169L95.0927 61.4278C95.0819 61.3657 95.0586 61.2415 95.0462 61.1795C95.1455 61.0414 95.2448 60.9033 95.3472 60.7667C95.4155 60.5743 95.4884 60.3834 95.5567 60.1925L95.7072 60.2018L95.6281 60.0079L95.7709 60.0436C95.8221 59.862 95.8795 59.6836 95.9447 59.5066L95.9804 59.4182L96.089 59.4197C96.1542 59.038 96.3947 58.7339 96.5949 58.4157C96.5949 58.3583 96.5949 58.245 96.5949 58.1876L96.7268 58.183C96.8385 57.9114 96.9704 57.6476 97.1038 57.3869L97.1706 57.4024C97.2063 57.1572 97.3335 56.9493 97.4825 56.7584C97.5554 56.5443 97.5834 56.2945 97.8192 56.1889C97.8146 56.1424 97.8068 56.0477 97.8037 55.9996L97.9154 55.9794C97.9775 55.7684 98.0303 55.5372 98.2599 55.4503C98.2661 55.368 98.2801 55.2051 98.2863 55.1244C98.3453 55.036 98.4632 54.8591 98.5222 54.7706L98.5703 54.7628C98.6153 54.558 98.6556 54.333 98.8527 54.2182C99.011 53.8519 99.1926 53.4935 99.3958 53.149L99.3493 53.0171L99.4998 53.0404C99.5867 52.73 99.7062 52.4228 99.9297 52.1822C99.9886 52.0317 100.052 51.8812 100.121 51.7338L100.139 51.6298L100.263 51.6686C100.316 51.4793 100.378 51.2931 100.448 51.1099L100.451 50.9982L100.577 51.0479C100.633 50.8617 100.696 50.677 100.768 50.4954L100.78 50.3775L100.98 50.4039C100.965 50.3341 100.937 50.1944 100.923 50.1246L101.103 50.0796C101.093 50.0051 101.075 49.8546 101.066 49.7801L101.258 49.7987L101.224 49.6125H101.339C101.379 49.4371 101.443 49.2711 101.534 49.1175C101.634 48.9219 101.719 48.7217 101.795 48.5169C101.84 48.52 101.928 48.5262 101.972 48.5278C102.007 48.2779 102.087 48.039 102.205 47.8155C102.352 47.6169 102.453 47.3857 102.546 47.156L102.638 47.1529C102.704 46.9527 102.776 46.7541 102.844 46.5555L102.984 46.5368L102.973 46.4298C103.08 46.2141 103.192 45.9999 103.305 45.7873C103.424 45.553 103.558 45.3249 103.696 45.0999C103.749 44.9044 103.814 44.7088 103.986 44.5847C104.118 44.2976 104.254 44.0121 104.396 43.7281H104.453C104.528 43.4953 104.652 43.2858 104.777 43.0779C104.829 42.8808 104.908 42.6884 105.075 42.5627C105.145 42.3734 105.215 42.1825 105.288 41.9948L105.404 42.0584C105.456 41.8691 105.515 41.6813 105.58 41.4966L105.591 41.3818L105.788 41.4144C105.78 41.3539 105.763 41.2344 105.755 41.1739C105.868 40.9458 105.983 40.7099 106.183 40.5423C106.196 40.4492 106.222 40.2614 106.235 40.1668L106.384 40.1637L106.345 39.9728L106.474 40.0162C106.532 39.8114 106.607 39.6097 106.692 39.4126Z" fill="white"/>
</g>
<defs>
<filter id="filter0_d_225_2" x="0.797669" y="5.06421" width="126.826" height="110.451" filterUnits="userSpaceOnUse" color-interpolation-filters="sRGB">
<feFlood flood-opacity="0" result="BackgroundImageFix"/>
<feColorMatrix in="SourceAlpha" type="matrix" values="0 0 0 0 0 0 0 0 0 0 0 0 0 0 0 0 0 0 127 0" result="hardAlpha"/>
<feOffset dy="8.20721"/>
<feGaussianBlur stdDeviation="4.10361"/>
<feComposite in2="hardAlpha" operator="out"/>
<feColorMatrix type="matrix" values="0 0 0 0 0 0 0 0 0 0 0 0 0 0 0 0 0 0 0.25 0"/>
<feBlend mode="normal" in2="BackgroundImageFix" result="effect1_dropShadow_225_2"/>
<feBlend mode="normal" in="SourceGraphic" in2="effect1_dropShadow_225_2" result="shape"/>
</filter>
</defs>
</svg>
