<svg xmlns="http://www.w3.org/2000/svg" viewBox="0 0 24 24" width="24" height="24" fill="#ffffff">
  <path d="M22.46 5.12c-.74.33-1.54.56-2.38.66a4.2 4.2 0 0 0 1.84-2.32 8.41 8.41 0 0 1-2.66 1.02 4.2 4.2 0 0 0-7.14 3.83 11.93 11.93 0 0 1-8.65-4.38 4.2 4.2 0 0 0 1.3 5.6 4.18 4.18 0 0 1-1.9-.52v.05a4.2 4.2 0 0 0 3.36 4.13 4.18 4.18 0 0 1-1.87.07 4.2 4.2 0 0 0 3.92 2.92 8.42 8.42 0 0 1-5.2 1.79A8.51 8.51 0 0 1 2 18.49a12 12 0 0 0 6.46 1.89c7.8 0 12.07-6.48 12.07-12.07 0-.18 0-.36-.01-.53a8.66 8.66 0 0 0 2.15-2.2l.01-.02z"/>
</svg>
